<?xml version="1.0" encoding="UTF-8"?>
<!-- Generator: Adobe Illustrator 23.1.0, SVG Export Plug-In . SVG Version: 6.00 Build 0)  -->
<svg xmlns="http://www.w3.org/2000/svg" xmlns:xlink="http://www.w3.org/1999/xlink" id="Layer_1" x="0px" y="0px" viewBox="0 0 126.22 35.56" style="enable-background:new 0 0 126.22 35.56;" xml:space="preserve">
<style type="text/css">
	.st0{fill:#2D3338;}
	.st1{fill:#008078;}
	.st2{fill:#00A79D;}
	.st3{fill:#DF9E26;}
	.st4{fill:#F1F2F2;}
	.st5{fill:#00AEEF;}
	.st6{fill:#F26522;}
	.st7{fill-rule:evenodd;clip-rule:evenodd;}
	.st8{fill-rule:evenodd;clip-rule:evenodd;fill:#FFFFFF;}
	.st9{fill:#FFFFFF;}
	.st10{fill:#ED6C63;}
	.st11{fill:#F7B818;}
	.st12{fill:#C31F42;}
	.st13{fill:#F9F9FA;}
</style>
<g>
	<g>
		<path class="st2" d="M26.01,16.49c-0.33-1.07-0.58-2.84-0.06-3.27c0.25-0.12,1.32-0.16,2.17-0.2c2.45-0.1,5.49-0.22,6.67-1.72    c1.19-1.51,2.21-3.49,1.73-6.66c-0.24-1.59-0.82-2.71-1.72-3.33C33.55,0.45,31.61,0,29.2,0c-4.65,0.01-11.14,2.2-12.22,4.45    C16,6.5,16.27,8.38,17.22,10.73c0.95,2.35,2.5,2.59,2.72,2.67c0.49,0.18,1,0.27,1.5,0.27c0.21,0,0.41-0.02,0.61-0.05    c0.91,2.45,3.04,3.53,3.13,3.58l1.24,0.62L26.01,16.49z"></path>
	</g>
</g>
<g>
	<path class="st9" d="M24.49,5.7c0.21-0.34,0.43-0.58,0.65-0.74c0.22-0.16,0.49-0.27,0.81-0.34c0.13-0.03,0.26-0.02,0.38,0.01   c0.12,0.04,0.24,0.09,0.34,0.17c0.1,0.08,0.19,0.17,0.26,0.29c0.07,0.12,0.12,0.24,0.15,0.38c0.05,0.21,0.07,0.41,0.08,0.61   c0,0.2,0,0.39-0.01,0.56c-0.01,0.17-0.02,0.33-0.03,0.48c0,0.15,0.01,0.26,0.04,0.36c0.03,0.1,0.06,0.16,0.09,0.19   c0.03,0.03,0.09,0.03,0.17,0.01c0.07-0.01,0.14-0.05,0.22-0.1c0.08-0.05,0.16-0.12,0.24-0.19c0.08-0.08,0.15-0.17,0.22-0.26   c0.07-0.1,0.13-0.2,0.18-0.3c0.06-0.13,0.13-0.2,0.19-0.21c0.02-0.01,0.04,0,0.07,0.01c0.03,0.01,0.04,0.03,0.05,0.06   c0.01,0.02-0.03,0.12-0.1,0.28c-0.07,0.17-0.18,0.35-0.31,0.55s-0.3,0.39-0.5,0.58c-0.2,0.18-0.42,0.3-0.66,0.36   c-0.27,0.06-0.49,0.03-0.64-0.1c-0.15-0.13-0.25-0.29-0.29-0.5c-0.03-0.12-0.05-0.24-0.06-0.37C26,7.38,25.98,7.24,25.97,7.12   s-0.03-0.25-0.04-0.37c-0.01-0.11-0.03-0.21-0.05-0.29c-0.03-0.11-0.07-0.18-0.12-0.23c-0.05-0.05-0.12-0.06-0.22-0.04   c-0.17,0.04-0.29,0.19-0.38,0.45c-0.09,0.26-0.18,0.6-0.28,1.02c-0.04,0.2-0.08,0.39-0.12,0.56c-0.03,0.17-0.08,0.33-0.13,0.47   c-0.05,0.14-0.12,0.25-0.21,0.34c-0.08,0.09-0.2,0.15-0.36,0.19c-0.12,0.03-0.23,0.03-0.31,0c-0.09-0.03-0.15-0.07-0.21-0.13   c-0.05-0.06-0.1-0.13-0.13-0.22c-0.04-0.09-0.07-0.18-0.1-0.27c-0.02-0.07-0.04-0.18-0.06-0.34c-0.02-0.15-0.04-0.32-0.06-0.48   c-0.02-0.17-0.04-0.32-0.05-0.46c-0.02-0.14-0.03-0.24-0.04-0.29c-0.02-0.07-0.07-0.15-0.15-0.23c-0.08-0.08-0.17-0.11-0.28-0.09   c-0.11,0.02-0.21,0.08-0.31,0.18c-0.1,0.1-0.2,0.24-0.3,0.43c-0.1,0.19-0.2,0.44-0.3,0.75c-0.1,0.3-0.21,0.67-0.31,1.11   c-0.06,0.24-0.14,0.46-0.23,0.66c-0.09,0.2-0.22,0.32-0.38,0.35c-0.19,0.04-0.34,0.02-0.45-0.06c-0.11-0.08-0.21-0.25-0.28-0.49   c-0.03-0.11-0.07-0.3-0.12-0.58c-0.04-0.27-0.09-0.56-0.14-0.88c-0.05-0.32-0.09-0.64-0.13-0.97c-0.04-0.32-0.07-0.61-0.09-0.84   c-0.03-0.37,0.02-0.69,0.14-0.97c0.12-0.27,0.35-0.45,0.69-0.53c0.17-0.04,0.33-0.02,0.49,0.05c0.16,0.07,0.26,0.21,0.31,0.42   c0.09,0.4,0.14,0.83,0.14,1.26C21.5,6.41,21.58,6.2,21.67,6c0.09-0.2,0.2-0.38,0.33-0.55c0.13-0.17,0.28-0.31,0.46-0.43   c0.18-0.13,0.4-0.22,0.67-0.28c0.18-0.04,0.34-0.04,0.49,0.01c0.15,0.05,0.28,0.12,0.39,0.22c0.11,0.1,0.21,0.22,0.29,0.35   C24.37,5.45,24.44,5.58,24.49,5.7z"></path>
	<path class="st9" d="M27.95,4c0.06-0.19,0.16-0.35,0.29-0.5s0.33-0.25,0.61-0.31c0.12-0.03,0.23-0.03,0.31-0.01   c0.08,0.02,0.15,0.06,0.21,0.11c0.05,0.05,0.1,0.12,0.13,0.19c0.03,0.07,0.05,0.15,0.07,0.22c0,0.01,0,0.11-0.01,0.27   c-0.01,0.17-0.01,0.37-0.01,0.61c0,0.24,0.01,0.49,0.02,0.75c0.01,0.26,0.04,0.49,0.09,0.69c0.05,0.2,0.1,0.35,0.17,0.45   C29.89,6.57,30,6.6,30.16,6.56c0.12-0.03,0.24-0.12,0.35-0.27c0.11-0.15,0.21-0.34,0.29-0.56c0.08-0.22,0.16-0.47,0.22-0.75   c0.06-0.28,0.09-0.56,0.11-0.84c0-0.12,0.02-0.23,0.04-0.35c0.02-0.12,0.06-0.23,0.1-0.33c0.05-0.1,0.11-0.18,0.18-0.25   c0.07-0.07,0.17-0.12,0.27-0.15c0.14-0.03,0.27,0,0.38,0.09c0.11,0.09,0.18,0.23,0.23,0.42c0.03,0.12,0.05,0.3,0.08,0.55   c0.03,0.24,0.04,0.51,0.06,0.79c0.01,0.28,0.03,0.56,0.03,0.83c0.01,0.27,0.01,0.5,0.01,0.68c0.08-0.07,0.18-0.16,0.29-0.27   S33,5.95,33.1,5.85s0.2-0.19,0.29-0.27c0.09-0.08,0.16-0.12,0.22-0.13c0.06-0.01,0.09,0,0.1,0.06c0.01,0.03-0.03,0.1-0.11,0.23   c-0.08,0.12-0.19,0.26-0.32,0.43c-0.13,0.17-0.27,0.34-0.42,0.52c-0.15,0.18-0.29,0.35-0.42,0.5c0.01,0.25-0.01,0.53-0.05,0.85   c-0.05,0.32-0.13,0.62-0.25,0.92c-0.12,0.29-0.28,0.56-0.49,0.79s-0.47,0.38-0.79,0.46c-0.25,0.05-0.46,0.03-0.63-0.07   c-0.17-0.1-0.29-0.27-0.34-0.5c-0.05-0.23-0.04-0.46,0.05-0.69c0.08-0.23,0.21-0.45,0.38-0.67c0.17-0.21,0.36-0.42,0.58-0.62   s0.43-0.38,0.65-0.55l-0.12-1.4c-0.11,0.58-0.32,1.05-0.62,1.4c-0.3,0.35-0.66,0.57-1.08,0.66c-0.22,0.05-0.42,0.04-0.6-0.02   c-0.18-0.06-0.34-0.17-0.49-0.32c-0.14-0.15-0.27-0.33-0.37-0.54c-0.11-0.21-0.19-0.45-0.24-0.7c-0.1-0.44-0.16-0.86-0.18-1.25   S27.87,4.22,27.95,4z M31.59,7.57c-0.13,0.1-0.25,0.21-0.36,0.33c-0.11,0.12-0.21,0.25-0.28,0.38c-0.08,0.13-0.13,0.26-0.17,0.39   c-0.04,0.13-0.04,0.26-0.01,0.37c0.02,0.1,0.06,0.16,0.12,0.18c0.06,0.02,0.12,0.02,0.17,0.01c0.08-0.02,0.15-0.08,0.21-0.2   c0.07-0.12,0.12-0.26,0.17-0.42c0.05-0.17,0.09-0.34,0.12-0.53C31.58,7.89,31.59,7.72,31.59,7.57z"></path>
</g>
<g>
	<path class="st13" d="M7.99,15.68c0.49,0,0.97,0.02,1.45,0.07c0.48,0.05,0.93,0.12,1.36,0.22c0.43,0.1,0.81,0.23,1.17,0.39   s0.65,0.33,0.89,0.54c0.35,0.3,0.62,0.67,0.8,1.1c0.18,0.44,0.27,0.89,0.27,1.37c0,0.55-0.12,1.04-0.36,1.46s-0.58,0.77-1.02,1.06   c-0.44,0.29-0.97,0.52-1.59,0.7c-0.62,0.18-1.31,0.29-2.07,0.34c0.97,0.04,1.87,0.21,2.7,0.51s1.47,0.68,1.95,1.16   c0.38,0.36,0.67,0.79,0.88,1.27c0.21,0.48,0.31,1.01,0.31,1.59c0,0.77-0.16,1.43-0.47,1.99c-0.31,0.55-0.75,1.01-1.32,1.37   c-0.57,0.36-1.26,0.62-2.07,0.79s-1.72,0.25-2.72,0.25H0.2c-0.09,0-0.15-0.02-0.17-0.06C0.01,31.75,0,31.71,0,31.67V15.92   c0-0.16,0.09-0.24,0.28-0.24H7.99z M5.49,17.57v4.38h0.28c0.27,0,0.56-0.01,0.88-0.04c0.32-0.03,0.61-0.11,0.87-0.25   S8.01,21.29,8.19,21c0.18-0.29,0.26-0.7,0.26-1.23c0-0.49-0.07-0.87-0.21-1.17c-0.14-0.29-0.32-0.51-0.55-0.67   c-0.22-0.16-0.48-0.26-0.76-0.3c-0.28-0.05-0.57-0.07-0.85-0.07H5.49z M5.49,23.91v6.1h0.53c0.3,0,0.61-0.04,0.93-0.12   s0.63-0.23,0.9-0.45c0.28-0.22,0.51-0.51,0.69-0.89c0.18-0.38,0.27-0.87,0.27-1.48c0-0.58-0.07-1.07-0.2-1.48s-0.31-0.73-0.54-0.98   c-0.22-0.25-0.48-0.43-0.77-0.54c-0.29-0.11-0.58-0.16-0.88-0.16H5.49z"></path>
	<path class="st13" d="M26.92,29.28c0.03,0.03,0.04,0.07,0.04,0.12c0,0.01,0,0.02-0.01,0.03s-0.01,0.02-0.01,0.03v0.02   c-0.12,0.18-0.32,0.42-0.6,0.73c-0.28,0.31-0.63,0.62-1.06,0.92c-0.43,0.3-0.95,0.57-1.55,0.79c-0.6,0.22-1.29,0.33-2.08,0.33   c-1.04,0-1.95-0.19-2.72-0.56c-0.77-0.37-1.41-0.88-1.92-1.52s-0.88-1.38-1.13-2.23c-0.25-0.84-0.38-1.74-0.38-2.68   c0-0.92,0.15-1.79,0.46-2.63c0.3-0.83,0.73-1.56,1.27-2.18c0.54-0.62,1.17-1.11,1.89-1.48c0.72-0.36,1.51-0.55,2.36-0.55   c0.96,0,1.79,0.18,2.49,0.55c0.7,0.37,1.28,0.86,1.74,1.48c0.46,0.62,0.8,1.35,1.02,2.18c0.22,0.83,0.33,1.71,0.33,2.63   c0,0.12-0.01,0.21-0.04,0.26c-0.03,0.05-0.09,0.08-0.2,0.08h-6.63c0.01,0.87,0.11,1.58,0.28,2.14s0.39,1.01,0.65,1.34   s0.54,0.56,0.84,0.7c0.3,0.14,0.59,0.2,0.86,0.2c0.45,0,0.92-0.13,1.41-0.4s0.92-0.66,1.29-1.19c0.03-0.03,0.05-0.05,0.06-0.08   c0.01-0.03,0.03-0.07,0.06-0.14s0.07-0.1,0.12-0.1c0.04,0,0.07,0.01,0.1,0.04l0.12,0.14L26.92,29.28z M21.49,19.98   c-0.43,0-0.74,0.33-0.92,0.98c-0.18,0.65-0.29,1.6-0.33,2.85h2.51c-0.04-1.28-0.15-2.23-0.33-2.87   C22.23,20.3,21.92,19.98,21.49,19.98z"></path>
	<path class="st13" d="M28.46,17.28c0-0.04,0-0.07,0.01-0.1c0.01-0.03,0.04-0.05,0.11-0.06c0.03,0,0.13-0.02,0.3-0.06   c0.17-0.04,0.38-0.09,0.63-0.15s0.51-0.12,0.79-0.18c0.28-0.06,0.55-0.13,0.79-0.19c0.34-0.08,0.69-0.18,1.04-0.28   c0.36-0.11,0.58-0.16,0.68-0.16c0.09,0,0.15,0.02,0.17,0.06c0.02,0.04,0.03,0.09,0.03,0.14v2.43h1.97c0.09,0,0.15,0.02,0.17,0.06   c0.02,0.04,0.03,0.08,0.03,0.12v1.32c0,0.04-0.01,0.08-0.03,0.12c-0.02,0.04-0.08,0.06-0.17,0.06h-1.97v8.45   c0,0.15,0.01,0.3,0.03,0.47c0.02,0.16,0.05,0.31,0.1,0.45c0.05,0.14,0.12,0.25,0.21,0.34c0.09,0.09,0.22,0.14,0.38,0.14   c0.24,0,0.44-0.04,0.6-0.11c0.16-0.07,0.28-0.16,0.38-0.25s0.18-0.19,0.22-0.27c0.05-0.09,0.07-0.14,0.07-0.15   c0.01-0.03,0.02-0.05,0.03-0.06s0.04-0.02,0.09-0.02c0.08,0,0.12,0.03,0.12,0.1v1.84c0,0.03-0.01,0.06-0.02,0.1   c-0.01,0.04-0.05,0.07-0.12,0.1c-0.34,0.15-0.69,0.28-1.05,0.41c-0.31,0.11-0.67,0.2-1.06,0.27s-0.8,0.11-1.21,0.11   c-0.45,0-0.87-0.06-1.28-0.19c-0.41-0.13-0.76-0.33-1.06-0.61c-0.3-0.28-0.55-0.64-0.73-1.07c-0.18-0.44-0.27-0.97-0.27-1.59V17.28   z"></path>
	<path class="st13" d="M36.5,17.28c0-0.04,0-0.07,0.01-0.1c0.01-0.03,0.04-0.05,0.11-0.06c0.03,0,0.13-0.02,0.3-0.06   c0.17-0.04,0.38-0.09,0.63-0.15s0.51-0.12,0.79-0.18c0.28-0.06,0.55-0.13,0.79-0.19c0.34-0.08,0.69-0.18,1.04-0.28   c0.36-0.11,0.58-0.16,0.68-0.16c0.09,0,0.15,0.02,0.17,0.06c0.02,0.04,0.03,0.09,0.03,0.14v2.43h1.97c0.09,0,0.15,0.02,0.17,0.06   c0.02,0.04,0.03,0.08,0.03,0.12v1.32c0,0.04-0.01,0.08-0.03,0.12c-0.02,0.04-0.08,0.06-0.17,0.06h-1.97v8.45   c0,0.15,0.01,0.3,0.03,0.47c0.02,0.16,0.05,0.31,0.1,0.45c0.05,0.14,0.12,0.25,0.21,0.34c0.09,0.09,0.22,0.14,0.38,0.14   c0.24,0,0.44-0.04,0.6-0.11c0.16-0.07,0.28-0.16,0.38-0.25s0.18-0.19,0.22-0.27c0.05-0.09,0.07-0.14,0.07-0.15   c0.01-0.03,0.02-0.05,0.03-0.06s0.04-0.02,0.09-0.02c0.08,0,0.12,0.03,0.12,0.1v1.84c0,0.03-0.01,0.06-0.02,0.1   c-0.01,0.04-0.05,0.07-0.12,0.1c-0.34,0.15-0.69,0.28-1.05,0.41c-0.31,0.11-0.67,0.2-1.06,0.27s-0.8,0.11-1.21,0.11   c-0.45,0-0.87-0.06-1.28-0.19c-0.41-0.13-0.76-0.33-1.06-0.61c-0.3-0.28-0.55-0.64-0.73-1.07c-0.18-0.44-0.27-0.97-0.27-1.59V17.28   z"></path>
	<path class="st13" d="M47.34,15.16c0.41,0,0.73,0.03,0.98,0.09c0.25,0.06,0.45,0.15,0.6,0.25c0.15,0.11,0.25,0.23,0.3,0.36   c0.05,0.14,0.08,0.27,0.08,0.41c0,0.15-0.06,0.31-0.17,0.48c-0.12,0.17-0.29,0.33-0.52,0.48c-0.23,0.15-0.52,0.27-0.86,0.38   c-0.34,0.1-0.75,0.15-1.21,0.15c-0.27,0-0.53-0.02-0.79-0.05c-0.26-0.03-0.48-0.09-0.68-0.17c-0.2-0.08-0.35-0.2-0.48-0.34   c-0.12-0.15-0.18-0.34-0.18-0.57c0-0.24,0.08-0.45,0.25-0.63s0.38-0.32,0.65-0.45c0.26-0.12,0.55-0.21,0.87-0.27   c0.32-0.06,0.62-0.1,0.9-0.11H47.34z M49.15,29.4c0,0.32,0.01,0.64,0.04,0.94c0.03,0.3,0.11,0.58,0.24,0.82   c0.03,0.07,0.06,0.13,0.09,0.17c0.03,0.05,0.06,0.08,0.09,0.11c0.03,0.04,0.05,0.07,0.08,0.1l0.04,0.04   c0.03,0.05,0.04,0.1,0.04,0.14c0,0.07-0.01,0.11-0.03,0.11c-0.02,0.01-0.06,0.01-0.13,0.01h-4.82c-0.11,0-0.17-0.02-0.18-0.06   c-0.01-0.04-0.02-0.08-0.02-0.12V19.74c0-0.04,0-0.08,0.01-0.13c0.01-0.05,0.04-0.08,0.11-0.09c0.03,0,0.12-0.01,0.27-0.02   s0.34-0.03,0.56-0.06s0.45-0.06,0.7-0.09c0.25-0.03,0.48-0.07,0.7-0.11c0.58-0.12,1.05-0.25,1.41-0.38c0.36-0.13,0.57-0.2,0.64-0.2   c0.04,0,0.08,0.01,0.12,0.02c0.04,0.01,0.06,0.05,0.06,0.1c0,0.08,0,0.21,0,0.38s-0.01,0.48-0.02,0.91V29.4z"></path>
	<path class="st13" d="M55.69,20.1c0.23-0.16,0.49-0.33,0.79-0.52c0.3-0.18,0.61-0.35,0.95-0.51s0.69-0.28,1.06-0.38   c0.37-0.09,0.75-0.14,1.14-0.14c0.51,0,0.94,0.09,1.29,0.26s0.63,0.39,0.84,0.65c0.22,0.26,0.38,0.53,0.48,0.82   c0.1,0.29,0.16,0.54,0.17,0.76v8.11c0,0.35,0.01,0.69,0.03,1.02c0.02,0.33,0.1,0.66,0.25,0.98c0.01,0.04,0.03,0.08,0.06,0.12   c0.03,0.04,0.05,0.08,0.08,0.12c0.03,0.05,0.05,0.09,0.08,0.12c0.01,0.01,0.03,0.03,0.04,0.06c0.03,0.05,0.04,0.1,0.04,0.14   c0,0.07-0.01,0.11-0.03,0.11s-0.06,0.01-0.13,0.01h-4.78c-0.09,0-0.15-0.02-0.17-0.06c-0.02-0.04-0.03-0.08-0.03-0.12v-9.46   c0-0.03-0.01-0.1-0.02-0.21c-0.01-0.11-0.05-0.24-0.11-0.37c-0.06-0.13-0.15-0.24-0.26-0.34c-0.11-0.1-0.27-0.15-0.48-0.15   c-0.23,0-0.46,0.04-0.69,0.13s-0.43,0.18-0.61,0.27v7.88c0,0.32,0.01,0.64,0.04,0.94c0.03,0.3,0.11,0.57,0.24,0.8   c0.03,0.07,0.06,0.13,0.09,0.17c0.03,0.05,0.06,0.08,0.09,0.11c0.03,0.04,0.05,0.07,0.08,0.1l0.04,0.04   c0.03,0.05,0.04,0.1,0.04,0.14c0,0.07-0.01,0.11-0.03,0.11s-0.06,0.01-0.13,0.01h-4.82c-0.09,0-0.15-0.02-0.17-0.06   c-0.02-0.04-0.03-0.08-0.03-0.12V19.49c0-0.04,0-0.08,0.01-0.13c0.01-0.05,0.04-0.08,0.11-0.09c0.03,0,0.12-0.01,0.27-0.04   c0.16-0.03,0.34-0.05,0.56-0.08c0.22-0.03,0.45-0.06,0.7-0.11c0.25-0.05,0.48-0.09,0.7-0.13c0.58-0.12,1.04-0.23,1.38-0.33   c0.34-0.1,0.54-0.15,0.61-0.15c0.16,0,0.24,0.05,0.24,0.16c0,0.08,0,0.19,0,0.33c0,0.14-0.01,0.43-0.02,0.86V20.1z"></path>
	<path class="st13" d="M64.38,23.42c0-0.66,0.14-1.29,0.42-1.88c0.28-0.59,0.67-1.11,1.17-1.56s1.09-0.8,1.77-1.05   c0.68-0.26,1.42-0.38,2.22-0.38c0.77,0,1.51,0.13,2.21,0.38c0.12,0.03,0.27,0.06,0.44,0.09c0.17,0.03,0.35,0.05,0.56,0.05   c0.19,0,0.39-0.06,0.59-0.18c0.2-0.12,0.37-0.34,0.49-0.67c0.22-0.57,0.59-0.85,1.12-0.85c0.27,0,0.51,0.1,0.72,0.31   c0.21,0.21,0.31,0.48,0.31,0.82s-0.11,0.64-0.33,0.89c-0.22,0.26-0.52,0.46-0.88,0.61c-0.31,0.12-0.62,0.2-0.93,0.24   c0.41,0.43,0.72,0.92,0.95,1.46c0.23,0.54,0.34,1.11,0.34,1.72c0,0.66-0.13,1.3-0.39,1.91c-0.26,0.61-0.63,1.14-1.1,1.61   c-0.48,0.47-1.06,0.84-1.74,1.12c-0.68,0.28-1.45,0.42-2.3,0.42c-0.5,0-0.96-0.04-1.39-0.13c-0.42-0.09-0.83-0.21-1.21-0.38   c-0.15,0.14-0.3,0.31-0.47,0.52c-0.16,0.21-0.24,0.45-0.24,0.72c0,0.39,0.13,0.7,0.41,0.91c0.27,0.22,0.55,0.32,0.85,0.32   c0.3,0,0.57-0.02,0.82-0.05c0.25-0.03,0.5-0.08,0.76-0.14c0.26-0.06,0.53-0.13,0.82-0.21s0.63-0.16,1.02-0.24   c0.27-0.05,0.56-0.1,0.86-0.14c0.3-0.04,0.61-0.06,0.92-0.06c0.61,0,1.19,0.1,1.74,0.31c0.55,0.21,0.99,0.61,1.3,1.21   c0.09,0.18,0.17,0.36,0.22,0.56c0.05,0.2,0.08,0.42,0.08,0.68c0,0.23-0.02,0.45-0.05,0.66c-0.03,0.21-0.08,0.39-0.15,0.56   c-0.15,0.41-0.35,0.74-0.61,1c-0.26,0.26-0.52,0.47-0.8,0.62c-0.28,0.15-0.53,0.25-0.76,0.3c-0.23,0.05-0.39,0.08-0.49,0.08   c-0.04-0.01-0.06-0.03-0.07-0.06c-0.01-0.03-0.01-0.05-0.01-0.08c0-0.03,0.03-0.07,0.08-0.12c0.07-0.05,0.15-0.14,0.24-0.25   c0.09-0.12,0.14-0.29,0.14-0.52c0-0.13-0.03-0.25-0.09-0.34c-0.06-0.09-0.14-0.17-0.23-0.23c-0.09-0.06-0.19-0.1-0.28-0.13   s-0.18-0.04-0.26-0.04s-0.18,0-0.3,0.01c-0.12,0.01-0.3,0.03-0.54,0.07c-0.24,0.04-0.55,0.1-0.93,0.19   c-0.39,0.09-0.88,0.21-1.47,0.35c-0.46,0.11-0.91,0.18-1.36,0.22c-0.45,0.04-0.83,0.06-1.14,0.06c-0.22,0-0.53-0.05-0.93-0.15   s-0.81-0.28-1.22-0.55c-0.41-0.26-0.76-0.62-1.05-1.07c-0.3-0.45-0.45-1.02-0.45-1.71c0-0.58,0.1-1.09,0.3-1.54   c0.2-0.45,0.44-0.83,0.72-1.15c0.28-0.32,0.56-0.58,0.84-0.78c0.28-0.2,0.5-0.34,0.65-0.43c-0.62-0.47-1.09-1.05-1.42-1.72   C64.54,24.92,64.38,24.19,64.38,23.42z M68.63,23.42c0,0.68,0.02,1.25,0.07,1.71c0.05,0.47,0.13,0.84,0.23,1.12   c0.11,0.28,0.24,0.49,0.41,0.61c0.16,0.12,0.36,0.18,0.61,0.18c0.47,0,0.81-0.28,1.02-0.83c0.21-0.55,0.31-1.47,0.31-2.74   c0-1.28-0.1-2.19-0.31-2.72c-0.21-0.53-0.55-0.79-1.02-0.79c-0.47,0-0.81,0.26-1.01,0.79C68.73,21.3,68.63,22.18,68.63,23.42z"></path>
	<path class="st13" d="M82.52,18.5c0.42,0,0.89,0.03,1.41,0.1s1.01,0.2,1.48,0.39c0.47,0.2,0.86,0.46,1.18,0.79s0.48,0.76,0.48,1.29   c0,0.28-0.05,0.52-0.16,0.71c-0.11,0.19-0.24,0.34-0.4,0.47c-0.16,0.12-0.32,0.21-0.51,0.25c-0.18,0.05-0.35,0.07-0.5,0.07   c-0.2,0-0.39-0.03-0.56-0.1s-0.32-0.15-0.45-0.23c-0.13-0.09-0.23-0.18-0.31-0.26s-0.14-0.15-0.16-0.19   c-0.03-0.03-0.04-0.05-0.04-0.08s0.02-0.05,0.06-0.08c0.01-0.01,0.03-0.03,0.06-0.04c0.05-0.03,0.12-0.08,0.19-0.16   s0.11-0.2,0.11-0.34c0-0.08-0.02-0.17-0.07-0.27c-0.05-0.1-0.14-0.2-0.27-0.3s-0.32-0.19-0.56-0.25s-0.54-0.1-0.92-0.1   c-0.78,0-1.34,0.13-1.68,0.38c-0.34,0.26-0.51,0.54-0.51,0.85s0.12,0.55,0.36,0.73s0.53,0.34,0.87,0.49   c0.16,0.07,0.45,0.16,0.87,0.27c0.42,0.12,0.88,0.26,1.39,0.45s1.01,0.41,1.52,0.67s0.93,0.58,1.27,0.94   c0.46,0.5,0.74,0.99,0.85,1.48c0.11,0.49,0.16,0.92,0.16,1.32c0,0.09-0.02,0.3-0.06,0.62c-0.04,0.32-0.16,0.69-0.34,1.13   c-0.15,0.32-0.35,0.66-0.62,1c-0.26,0.34-0.6,0.66-1.02,0.93c-0.42,0.28-0.92,0.5-1.49,0.68c-0.58,0.18-1.25,0.26-2.04,0.26   c-1.13,0-2.06-0.13-2.77-0.39c-0.71-0.26-1.26-0.57-1.66-0.92s-0.67-0.71-0.81-1.06s-0.21-0.61-0.21-0.79c0-0.43,0.14-0.8,0.42-1.1   c0.28-0.3,0.65-0.46,1.13-0.46c0.47,0,0.83,0.14,1.08,0.44c0.25,0.29,0.38,0.58,0.38,0.86c0,0.23-0.02,0.4-0.06,0.51   c-0.04,0.11-0.06,0.18-0.06,0.2c0,0.03,0.05,0.1,0.14,0.21c0.09,0.12,0.25,0.23,0.46,0.35c0.21,0.12,0.48,0.23,0.81,0.32   c0.33,0.09,0.73,0.14,1.21,0.14c0.46,0,0.82-0.06,1.09-0.19s0.48-0.27,0.62-0.44c0.14-0.16,0.23-0.33,0.27-0.5   c0.04-0.17,0.06-0.29,0.06-0.38c0-0.07-0.01-0.16-0.03-0.28c-0.02-0.12-0.08-0.25-0.18-0.4c-0.1-0.14-0.26-0.29-0.47-0.45   c-0.21-0.16-0.5-0.3-0.88-0.44c-0.26-0.09-0.57-0.19-0.95-0.29c-0.38-0.1-0.78-0.23-1.2-0.38c-0.42-0.15-0.84-0.33-1.26-0.55   s-0.79-0.49-1.13-0.81c-0.33-0.32-0.6-0.71-0.81-1.17c-0.21-0.45-0.31-0.98-0.31-1.59c0-0.73,0.17-1.37,0.52-1.91   c0.34-0.54,0.78-0.99,1.32-1.35c0.53-0.36,1.13-0.62,1.78-0.79S81.89,18.5,82.52,18.5z"></path>
	<path class="st13" d="M91.84,15.16c0.41,0,0.73,0.03,0.98,0.09c0.25,0.06,0.45,0.15,0.6,0.25c0.15,0.11,0.25,0.23,0.3,0.36   c0.05,0.14,0.08,0.27,0.08,0.41c0,0.15-0.06,0.31-0.17,0.48c-0.12,0.17-0.29,0.33-0.52,0.48c-0.23,0.15-0.52,0.27-0.86,0.38   c-0.34,0.1-0.75,0.15-1.21,0.15c-0.27,0-0.53-0.02-0.79-0.05c-0.26-0.03-0.48-0.09-0.68-0.17c-0.2-0.08-0.35-0.2-0.48-0.34   c-0.12-0.15-0.18-0.34-0.18-0.57c0-0.24,0.08-0.45,0.25-0.63s0.38-0.32,0.65-0.45c0.26-0.12,0.55-0.21,0.87-0.27   c0.32-0.06,0.62-0.1,0.9-0.11H91.84z M93.65,29.4c0,0.32,0.01,0.64,0.04,0.94c0.03,0.3,0.11,0.58,0.24,0.82   c0.03,0.07,0.06,0.13,0.09,0.17c0.03,0.05,0.06,0.08,0.09,0.11c0.03,0.04,0.05,0.07,0.08,0.1l0.04,0.04   c0.03,0.05,0.04,0.1,0.04,0.14c0,0.07-0.01,0.11-0.03,0.11c-0.02,0.01-0.06,0.01-0.13,0.01h-4.82c-0.11,0-0.17-0.02-0.18-0.06   c-0.01-0.04-0.02-0.08-0.02-0.12V19.74c0-0.04,0-0.08,0.01-0.13c0.01-0.05,0.04-0.08,0.11-0.09c0.03,0,0.12-0.01,0.27-0.02   s0.34-0.03,0.56-0.06s0.45-0.06,0.7-0.09c0.25-0.03,0.48-0.07,0.7-0.11c0.58-0.12,1.05-0.25,1.41-0.38c0.36-0.13,0.57-0.2,0.64-0.2   c0.04,0,0.08,0.01,0.12,0.02c0.04,0.01,0.06,0.05,0.06,0.1c0,0.08,0,0.21,0,0.38s-0.01,0.48-0.02,0.91V29.4z"></path>
	<path class="st13" d="M95.66,17.28c0-0.04,0-0.07,0.01-0.1c0.01-0.03,0.04-0.05,0.11-0.06c0.03,0,0.13-0.02,0.3-0.06   c0.17-0.04,0.38-0.09,0.63-0.15s0.51-0.12,0.79-0.18c0.28-0.06,0.55-0.13,0.79-0.19c0.34-0.08,0.69-0.18,1.04-0.28   c0.36-0.11,0.58-0.16,0.68-0.16c0.09,0,0.15,0.02,0.17,0.06c0.02,0.04,0.03,0.09,0.03,0.14v2.43h1.97c0.09,0,0.15,0.02,0.17,0.06   c0.02,0.04,0.03,0.08,0.03,0.12v1.32c0,0.04-0.01,0.08-0.03,0.12c-0.02,0.04-0.08,0.06-0.17,0.06h-1.97v8.45   c0,0.15,0.01,0.3,0.03,0.47c0.02,0.16,0.05,0.31,0.1,0.45c0.05,0.14,0.12,0.25,0.21,0.34c0.09,0.09,0.22,0.14,0.38,0.14   c0.24,0,0.44-0.04,0.6-0.11c0.16-0.07,0.28-0.16,0.38-0.25s0.18-0.19,0.22-0.27c0.05-0.09,0.07-0.14,0.07-0.15   c0.01-0.03,0.02-0.05,0.03-0.06s0.04-0.02,0.09-0.02c0.08,0,0.12,0.03,0.12,0.1v1.84c0,0.03-0.01,0.06-0.02,0.1   c-0.01,0.04-0.05,0.07-0.12,0.1c-0.34,0.15-0.69,0.28-1.05,0.41c-0.31,0.11-0.67,0.2-1.06,0.27s-0.8,0.11-1.21,0.11   c-0.45,0-0.87-0.06-1.28-0.19c-0.41-0.13-0.76-0.33-1.06-0.61c-0.3-0.28-0.55-0.64-0.73-1.07c-0.18-0.44-0.27-0.97-0.27-1.59V17.28   z"></path>
	<path class="st13" d="M114.36,29.28c0.03,0.03,0.04,0.07,0.04,0.12c0,0.01,0,0.02-0.01,0.03s-0.01,0.02-0.01,0.03v0.02   c-0.12,0.18-0.32,0.42-0.6,0.73c-0.28,0.31-0.63,0.62-1.06,0.92c-0.43,0.3-0.95,0.57-1.55,0.79c-0.6,0.22-1.29,0.33-2.08,0.33   c-1.04,0-1.95-0.19-2.72-0.56c-0.77-0.37-1.41-0.88-1.92-1.52s-0.88-1.38-1.13-2.23c-0.25-0.84-0.38-1.74-0.38-2.68   c0-0.92,0.15-1.79,0.46-2.63c0.3-0.83,0.73-1.56,1.27-2.18c0.54-0.62,1.17-1.11,1.89-1.48c0.72-0.36,1.51-0.55,2.36-0.55   c0.96,0,1.79,0.18,2.49,0.55c0.7,0.37,1.28,0.86,1.74,1.48c0.46,0.62,0.8,1.35,1.02,2.18c0.22,0.83,0.33,1.71,0.33,2.63   c0,0.12-0.01,0.21-0.04,0.26c-0.03,0.05-0.09,0.08-0.2,0.08h-6.63c0.01,0.87,0.11,1.58,0.28,2.14s0.39,1.01,0.65,1.34   s0.54,0.56,0.84,0.7c0.3,0.14,0.59,0.2,0.86,0.2c0.45,0,0.92-0.13,1.41-0.4s0.92-0.66,1.29-1.19c0.03-0.03,0.05-0.05,0.06-0.08   c0.01-0.03,0.03-0.07,0.06-0.14s0.07-0.1,0.12-0.1c0.04,0,0.07,0.01,0.1,0.04l0.12,0.14L114.36,29.28z M108.92,19.98   c-0.43,0-0.74,0.33-0.92,0.98c-0.18,0.65-0.29,1.6-0.33,2.85h2.51c-0.04-1.28-0.15-2.23-0.33-2.87   C109.66,20.3,109.36,19.98,108.92,19.98z"></path>
	<path class="st13" d="M121.05,18.5c0.42,0,0.89,0.03,1.41,0.1s1.01,0.2,1.48,0.39c0.47,0.2,0.86,0.46,1.18,0.79   s0.48,0.76,0.48,1.29c0,0.28-0.05,0.52-0.16,0.71c-0.11,0.19-0.24,0.34-0.4,0.47c-0.16,0.12-0.32,0.21-0.51,0.25   c-0.18,0.05-0.35,0.07-0.5,0.07c-0.2,0-0.39-0.03-0.56-0.1s-0.32-0.15-0.45-0.23c-0.13-0.09-0.23-0.18-0.31-0.26   s-0.14-0.15-0.16-0.19c-0.03-0.03-0.04-0.05-0.04-0.08s0.02-0.05,0.06-0.08c0.01-0.01,0.03-0.03,0.06-0.04   c0.05-0.03,0.12-0.08,0.19-0.16s0.11-0.2,0.11-0.34c0-0.08-0.02-0.17-0.07-0.27c-0.05-0.1-0.14-0.2-0.27-0.3s-0.32-0.19-0.56-0.25   s-0.54-0.1-0.92-0.1c-0.78,0-1.34,0.13-1.68,0.38c-0.34,0.26-0.51,0.54-0.51,0.85s0.12,0.55,0.36,0.73s0.53,0.34,0.87,0.49   c0.16,0.07,0.45,0.16,0.87,0.27c0.42,0.12,0.88,0.26,1.39,0.45s1.01,0.41,1.52,0.67s0.93,0.58,1.27,0.94   c0.46,0.5,0.74,0.99,0.85,1.48c0.11,0.49,0.16,0.92,0.16,1.32c0,0.09-0.02,0.3-0.06,0.62c-0.04,0.32-0.16,0.69-0.34,1.13   c-0.15,0.32-0.35,0.66-0.62,1c-0.26,0.34-0.6,0.66-1.02,0.93c-0.42,0.28-0.92,0.5-1.49,0.68c-0.58,0.18-1.25,0.26-2.04,0.26   c-1.13,0-2.06-0.13-2.77-0.39c-0.71-0.26-1.26-0.57-1.66-0.92s-0.67-0.71-0.81-1.06s-0.21-0.61-0.21-0.79c0-0.43,0.14-0.8,0.42-1.1   c0.28-0.3,0.65-0.46,1.13-0.46c0.47,0,0.83,0.14,1.08,0.44c0.25,0.29,0.38,0.58,0.38,0.86c0,0.23-0.02,0.4-0.06,0.51   c-0.04,0.11-0.06,0.18-0.06,0.2c0,0.03,0.05,0.1,0.14,0.21c0.09,0.12,0.25,0.23,0.46,0.35c0.21,0.12,0.48,0.23,0.81,0.32   c0.33,0.09,0.73,0.14,1.21,0.14c0.46,0,0.82-0.06,1.09-0.19s0.48-0.27,0.62-0.44c0.14-0.16,0.23-0.33,0.27-0.5   c0.04-0.17,0.06-0.29,0.06-0.38c0-0.07-0.01-0.16-0.03-0.28c-0.02-0.12-0.08-0.25-0.18-0.4c-0.1-0.14-0.26-0.29-0.47-0.45   c-0.21-0.16-0.5-0.3-0.88-0.44c-0.26-0.09-0.57-0.19-0.95-0.29c-0.38-0.1-0.78-0.23-1.2-0.38c-0.42-0.15-0.84-0.33-1.26-0.55   s-0.79-0.49-1.13-0.81c-0.33-0.32-0.6-0.71-0.81-1.17c-0.21-0.45-0.31-0.98-0.31-1.59c0-0.73,0.17-1.37,0.52-1.91   c0.34-0.54,0.78-0.99,1.32-1.35c0.53-0.36,1.13-0.62,1.78-0.79S120.43,18.5,121.05,18.5z"></path>
</g>
<g>
	<path class="st13" d="M101.7,15.87c0-0.17,0.03-0.33,0.1-0.48c0.06-0.15,0.15-0.28,0.26-0.39s0.24-0.2,0.39-0.26   c0.15-0.06,0.31-0.1,0.48-0.1s0.33,0.03,0.48,0.1c0.15,0.06,0.28,0.15,0.39,0.26c0.11,0.11,0.2,0.24,0.26,0.39   c0.06,0.15,0.1,0.31,0.1,0.48s-0.03,0.33-0.1,0.48c-0.06,0.15-0.15,0.28-0.26,0.39c-0.11,0.11-0.24,0.2-0.39,0.26   c-0.15,0.06-0.31,0.1-0.48,0.1s-0.33-0.03-0.48-0.1c-0.15-0.06-0.28-0.15-0.39-0.26c-0.11-0.11-0.2-0.24-0.26-0.39   C101.73,16.2,101.7,16.04,101.7,15.87z"></path>
	<path class="st13" d="M109.76,16.09c-0.04,0.05-0.13,0.12-0.26,0.22c-0.13,0.1-0.29,0.2-0.49,0.31c-0.2,0.1-0.44,0.2-0.71,0.27   c-0.27,0.08-0.57,0.12-0.88,0.12c-0.5,0-0.94-0.11-1.32-0.33c-0.47-0.27-0.84-0.65-1.09-1.12s-0.38-1.02-0.38-1.64   c0-0.41,0.08-0.81,0.23-1.19c0.15-0.38,0.36-0.71,0.62-1c0.26-0.29,0.57-0.51,0.92-0.68c0.35-0.17,0.73-0.26,1.13-0.26   c0.4,0,0.74,0.05,1,0.14c0.27,0.09,0.48,0.21,0.63,0.34s0.26,0.29,0.32,0.45c0.06,0.16,0.09,0.31,0.09,0.44   c0,0.18-0.04,0.32-0.11,0.43s-0.16,0.2-0.26,0.26c-0.1,0.06-0.2,0.1-0.3,0.12c-0.1,0.02-0.18,0.03-0.23,0.03   c-0.13,0-0.25-0.02-0.35-0.06s-0.19-0.09-0.26-0.15c-0.08-0.07-0.16-0.14-0.22-0.22l0.02-0.11c0.07-0.02,0.15-0.06,0.24-0.14   c0.09-0.07,0.13-0.18,0.13-0.32c0-0.12-0.04-0.23-0.13-0.32s-0.19-0.14-0.31-0.14c-0.18,0-0.32,0.05-0.44,0.15   c-0.12,0.1-0.21,0.24-0.28,0.43c-0.07,0.19-0.11,0.43-0.14,0.72c-0.03,0.29-0.04,0.63-0.04,1.01c0,0.37,0.02,0.67,0.07,0.93   c0.05,0.25,0.12,0.46,0.22,0.63c0.13,0.22,0.29,0.37,0.47,0.46c0.18,0.08,0.34,0.13,0.49,0.13c0.22,0,0.44-0.06,0.64-0.18   c0.2-0.12,0.38-0.28,0.54-0.47L109.76,16.09z"></path>
	<path class="st13" d="M110.06,13.89c0-0.41,0.07-0.8,0.21-1.17c0.14-0.37,0.34-0.69,0.6-0.96c0.25-0.27,0.56-0.49,0.91-0.65   s0.73-0.24,1.15-0.24s0.8,0.08,1.15,0.24c0.35,0.16,0.65,0.38,0.91,0.65c0.26,0.27,0.46,0.59,0.6,0.96   c0.14,0.37,0.21,0.75,0.21,1.17s-0.07,0.81-0.2,1.18c-0.13,0.37-0.32,0.71-0.57,1c-0.25,0.29-0.54,0.52-0.89,0.69   c-0.35,0.17-0.75,0.26-1.18,0.26c-0.46,0-0.86-0.08-1.22-0.26c-0.36-0.17-0.66-0.4-0.91-0.69c-0.25-0.29-0.43-0.62-0.56-1   S110.06,14.31,110.06,13.89z M112.25,13.9c0,0.84,0.05,1.47,0.16,1.86c0.1,0.4,0.28,0.6,0.52,0.6c0.25,0,0.43-0.21,0.54-0.62   c0.11-0.42,0.16-1.02,0.16-1.8c0-0.8-0.05-1.4-0.16-1.79c-0.11-0.39-0.29-0.58-0.54-0.58c-0.24,0-0.42,0.2-0.52,0.59   C112.3,12.54,112.25,13.13,112.25,13.9z"></path>
	<path class="st13" d="M119.6,12.45c0-0.04-0.01-0.08-0.02-0.13c-0.01-0.05-0.04-0.1-0.07-0.15c-0.03-0.05-0.08-0.09-0.13-0.12   s-0.11-0.05-0.19-0.05c-0.1,0-0.21,0.02-0.31,0.06c-0.1,0.04-0.19,0.09-0.27,0.14v3.56c0,0.15,0.01,0.29,0.02,0.42   c0.01,0.14,0.05,0.26,0.11,0.36c0.01,0.03,0.03,0.06,0.04,0.08c0.02,0.02,0.03,0.04,0.04,0.05c0.01,0.02,0.02,0.03,0.04,0.05   l0.02,0.02c0.01,0.02,0.02,0.05,0.02,0.06c0,0.03,0,0.05-0.01,0.05c-0.01,0-0.03,0-0.06,0h-2.17c-0.04,0-0.07-0.01-0.08-0.03   s-0.01-0.04-0.01-0.05v-5.49c0-0.02,0-0.04,0-0.06c0-0.02,0.02-0.03,0.05-0.04c0.01,0,0.05-0.01,0.12-0.02   c0.07-0.01,0.15-0.02,0.25-0.04c0.1-0.01,0.2-0.03,0.31-0.05c0.11-0.02,0.22-0.04,0.32-0.06c0.26-0.05,0.47-0.11,0.62-0.15   c0.15-0.05,0.24-0.07,0.27-0.07c0.07,0,0.11,0.02,0.11,0.07c0,0.04,0,0.09,0,0.15c0,0.06,0,0.19-0.01,0.39v0.15   c0.1-0.08,0.22-0.16,0.36-0.25c0.13-0.08,0.28-0.16,0.43-0.24c0.15-0.07,0.31-0.13,0.48-0.18c0.17-0.05,0.34-0.07,0.52-0.07   c0.16,0,0.31,0.02,0.44,0.07s0.24,0.1,0.33,0.17c0.09,0.07,0.17,0.15,0.24,0.24c0.07,0.09,0.12,0.18,0.16,0.27   c0.1-0.08,0.22-0.16,0.36-0.25c0.13-0.09,0.28-0.17,0.44-0.24c0.16-0.07,0.33-0.13,0.5-0.18s0.36-0.07,0.54-0.07   c0.23,0,0.43,0.04,0.59,0.12s0.29,0.18,0.4,0.3c0.11,0.12,0.19,0.25,0.24,0.38s0.08,0.25,0.09,0.35v3.65c0,0.16,0,0.31,0.01,0.46   c0.01,0.15,0.05,0.3,0.11,0.44c0.01,0.02,0.02,0.04,0.03,0.05c0.01,0.02,0.02,0.04,0.04,0.05c0.01,0.02,0.02,0.04,0.04,0.05   c0.01,0.01,0.01,0.02,0.02,0.03c0.01,0.02,0.02,0.05,0.02,0.06c0,0.03,0,0.05-0.01,0.05c-0.01,0-0.03,0-0.06,0h-2.16   c-0.04,0-0.07-0.01-0.08-0.03c-0.01-0.02-0.01-0.04-0.01-0.05V12.4c0-0.09-0.04-0.18-0.12-0.26s-0.19-0.12-0.33-0.12   c-0.1,0-0.2,0.02-0.29,0.05c-0.09,0.04-0.17,0.07-0.25,0.11v3.45c0,0.16,0,0.31,0.01,0.46c0.01,0.15,0.05,0.3,0.11,0.44   c0.01,0.02,0.02,0.04,0.03,0.05c0.01,0.02,0.02,0.04,0.04,0.05c0.01,0.02,0.02,0.04,0.04,0.05c0.01,0.01,0.01,0.02,0.02,0.03   c0.01,0.02,0.02,0.05,0.02,0.06c0,0.03,0,0.05-0.01,0.05c-0.01,0-0.03,0-0.06,0h-2.18c-0.04,0-0.07-0.01-0.08-0.03   s-0.01-0.04-0.01-0.05V12.45z"></path>
</g>
</svg>
